<?xml version="1.0" ?><!DOCTYPE svg  PUBLIC '-//W3C//DTD SVG 1.1//EN'  'http://www.w3.org/Graphics/SVG/1.1/DTD/svg11.dtd'><svg id="Layer_1" style="enable-background:new 0 0 78 78;" version="1.1" viewBox="0 0 78 78" xml:space="preserve" xmlns="http://www.w3.org/2000/svg" xmlns:xlink="http://www.w3.org/1999/xlink"><style type="text/css">
	.st0{fill:none;stroke:#2A445D;stroke-width:2;stroke-linecap:round;stroke-linejoin:round;stroke-miterlimit:10;}
	.st1{fill:#2A445D;}
	.st2{fill:#171715;}
	.st3{fill:#FFAC35;}
	.st4{fill:#AAC148;}
	.st5{fill:#0067FF;}
	.st6{fill:#FFBA00;}
	.st7{fill:#00AEF0;}
	.st8{fill:#222A30;}
	.st9{fill:#90A358;}
	.st10{fill:#FFFFFF;}
	.st11{fill:#0074D2;}
	.st12{fill:#D4D1D1;}
	.st13{fill:#01CB3E;}
	.st14{fill:#A6285F;}
	.st15{fill:#1587EA;}
	.st16{fill:#90B24C;}
	.st17{fill:#E65300;}
	.st18{fill:#475993;}
	.st19{fill:#005DE1;}
	.st20{fill:#FF007E;}
	.st21{fill:#FF4175;}
	.st22{fill:#F34A38;}
	.st23{fill:#333F40;}
	.st24{fill:#FF9414;}
	.st25{fill:#0090E1;}
	.st26{fill:#FC490B;}
	.st27{fill:url(#XMLID_10_);}
	.st28{fill:url(#XMLID_11_);}
	.st29{fill:url(#XMLID_12_);}
	.st30{fill:#00CE62;}
	.st31{fill:#0077B7;}
	.st32{fill:#00FD8D;}
	.st33{fill:#00E470;}
	.st34{fill:#00C967;}
	.st35{fill:#00AD6C;}
	.st36{fill:#EB4427;}
	.st37{fill:#002987;}
	.st38{fill:#0085CC;}
	.st39{fill:#00186A;}
	.st40{fill:#00A4C3;}
	.st41{fill:#FF4B30;}
	.st42{fill:#9F1121;}
	.st43{fill:#2950A1;}
	.st44{fill:#CF2217;}
	.st45{fill:#0088C3;}
	.st46{fill:#FF1A03;}
	.st47{fill:#00AAF2;}
	.st48{fill:#050505;}
	.st49{fill:url(#SVGID_1_);}
	.st50{fill:url(#SVGID_2_);}
	.st51{fill:url(#SVGID_3_);}
	.st52{fill:url(#SVGID_4_);}
	.st53{fill:url(#SVGID_5_);}
	.st54{fill:url(#SVGID_6_);}
	.st55{fill:url(#SVGID_7_);}
	.st56{fill:url(#SVGID_8_);}
	.st57{fill:url(#SVGID_9_);}
	.st58{fill:url(#SVGID_10_);}
	.st59{fill:url(#SVGID_11_);}
	.st60{fill:#00D95F;}
	.st61{fill:#FF4403;}
	.st62{fill:#518FE1;}
	.st63{fill:#76A9EA;}
	.st64{fill:#69B4E5;}
	.st65{fill:#04B086;}
	.st66{fill:#7AD06D;}
	.st67{fill:#00769D;}
	.st68{fill:#DC0000;}
	.st69{fill:#F61C0D;}
</style><g><g id="XMLID_1_"><path class="st0" d="M54,2H24C11.9,2,2,11.9,2,24V54c0,12.2,9.9,22,22,22H54c12.2,0,22-9.9,22-22V24    C76,11.9,66.1,2,54,2z M68.6,54C68.6,62,62,68.6,54,68.6H24C16,68.6,9.4,62,9.4,54V24C9.4,16,16,9.4,24,9.4H54    C62,9.4,68.6,16,68.6,24V54L68.6,54z" id="XMLID_4_"/><path class="st0" d="M39,19.9c-10.6,0-19.1,8.6-19.1,19.1S28.4,58.1,39,58.1S58.1,49.6,58.1,39S49.6,19.9,39,19.9z     M39,50.7c-6.5,0-11.7-5.2-11.7-11.7S32.5,27.3,39,27.3c6.5,0,11.7,5.2,11.7,11.7C50.7,45.5,45.5,50.7,39,50.7z" id="XMLID_3_"/><circle class="st0" cx="58.2" cy="20" id="XMLID_2_" r="4.6"/></g></g></svg>